<?xml version="1.0" standalone="no"?>
<!DOCTYPE svg PUBLIC "-//W3C//DTD SVG 20010904//EN"
 "http://www.w3.org/TR/2001/REC-SVG-20010904/DTD/svg10.dtd">
<svg version="1.0" xmlns="http://www.w3.org/2000/svg"
 width="320.000000pt" height="320.000000pt" viewBox="0 0 320.000000 320.000000"
 preserveAspectRatio="xMidYMid meet">

<g transform="translate(0.000000,320.000000) scale(0.100000,-0.100000)"
fill="#000000" stroke="none">
<path d="M1156 3152 c-16 -27 -17 -86 -1 -122 27 -61 0 -83 -67 -55 -13 5 -18
3 -18 -9 0 -12 -10 -16 -36 -16 -29 0 -34 -3 -26 -13 9 -10 -2 -27 -46 -71
-52 -52 -55 -59 -39 -70 24 -19 21 -32 -13 -58 -16 -12 -30 -28 -30 -36 0 -12
3 -12 16 -1 23 19 36 -6 28 -53 -6 -37 -5 -38 24 -38 17 0 37 -2 44 -5 9 -4
20 7 31 30 13 28 22 35 46 35 30 0 32 -2 46 -63 8 -40 -20 -131 -54 -169 -23
-26 -38 -32 -91 -39 -63 -7 -113 -33 -117 -60 -10 -78 -14 -87 -42 -97 -20 -7
-30 -18 -33 -39 -3 -15 -8 -37 -12 -48 -5 -12 0 -9 10 8 10 15 27 27 36 27 22
0 22 -3 3 -40 -19 -37 -10 -38 26 -4 19 18 35 25 55 22 l29 -3 -38 -35 c-44
-40 -77 -130 -57 -154 21 -27 57 -3 115 77 48 65 61 77 85 77 28 0 29 -2 23
-37 -7 -46 -59 -130 -125 -200 -47 -51 -56 -74 -39 -102 12 -18 27 -7 57 42
26 42 51 67 66 67 16 0 8 -107 -10 -131 -10 -13 -27 -41 -37 -62 -11 -21 -32
-50 -47 -64 -33 -31 -35 -43 -9 -43 13 0 29 18 49 53 50 89 76 114 112 109 39
-6 44 -15 25 -51 -30 -58 -11 -121 35 -121 16 0 18 6 13 33 -3 23 0 37 11 46
13 11 17 9 25 -13 6 -15 21 -28 36 -32 30 -8 45 -38 45 -94 0 -24 -5 -40 -15
-44 -23 -8 -18 -55 10 -92 14 -18 25 -37 25 -42 0 -6 9 -8 20 -5 18 5 19 2 12
-28 -9 -42 -9 -111 0 -207 12 -129 21 -92 15 60 -3 81 -2 150 2 152 3 3 27
-14 51 -36 25 -22 55 -47 68 -57 19 -14 22 -21 13 -41 -5 -14 -23 -40 -40 -57
-16 -18 -26 -33 -21 -33 4 0 28 22 52 50 59 69 79 66 37 -5 -12 -19 -40 -91
-64 -160 -23 -69 -50 -136 -59 -149 -9 -14 -16 -32 -16 -41 0 -18 -14 -20 -28
-2 -10 11 -38 82 -47 117 -20 81 -24 113 -16 128 12 23 2 89 -11 71 -6 -9 -7
-5 -3 12 4 14 -3 58 -14 99 -12 41 -21 99 -21 130 -1 39 -3 50 -10 39 -5 -9
-11 -78 -13 -154 -3 -102 -8 -141 -18 -149 -8 -6 -14 -20 -14 -31 0 -14 -8
-21 -27 -23 -17 -2 -28 2 -28 8 0 8 9 10 25 6 28 -7 30 -4 14 25 -5 11 -14 17
-20 14 -5 -4 -9 3 -9 14 0 11 5 23 10 26 6 3 10 22 10 41 0 38 -20 46 -42 16
-7 -10 -21 -21 -31 -25 -13 -5 -16 -13 -12 -27 4 -11 2 -20 -4 -20 -6 0 -11 5
-11 11 0 6 -7 9 -15 5 -13 -5 -14 -2 -4 17 6 12 17 29 25 37 7 8 14 20 15 25
1 6 13 27 27 48 29 43 24 56 -15 38 -16 -7 -62 -23 -103 -36 -41 -12 -93 -30
-115 -40 -22 -10 -49 -19 -60 -20 -51 -8 -188 -35 -196 -40 -4 -3 -25 -7 -45
-9 -58 -4 -78 -36 -71 -116 3 -36 2 -54 -2 -40 -8 28 -15 20 -26 -28 -4 -21
-3 -32 5 -32 6 0 4 -7 -5 -17 -14 -13 -16 -28 -12 -69 3 -29 3 -55 0 -58 -3
-3 -14 -29 -25 -58 -18 -52 -21 -99 -14 -247 2 -47 -2 -73 -14 -95 -10 -17
-20 -46 -24 -64 -6 -32 -1 -36 42 -35 16 1 12 -29 -4 -34 -7 -2 -19 3 -27 12
-20 19 -23 13 -31 -60 -7 -53 -17 -105 -32 -157 -5 -17 63 -18 1331 -18 l1337
0 -7 113 c-4 61 -11 144 -16 182 -5 39 -13 164 -19 278 -5 115 -15 217 -21
229 -6 12 -26 66 -45 120 -18 54 -49 125 -68 157 l-35 58 -153 42 c-84 23
-232 60 -328 82 -173 40 -218 58 -272 108 -28 26 -37 51 -18 51 6 0 10 9 10
19 0 11 -4 23 -10 26 -18 11 -12 46 8 43 14 -3 18 9 26 82 4 47 8 150 8 230
l-1 145 30 33 30 34 40 -16 c21 -9 39 -12 39 -8 -1 4 -7 33 -14 65 -13 50 -12
57 1 57 8 0 26 -9 40 -20 32 -25 41 -19 19 15 -23 35 -5 33 71 -7 34 -18 65
-30 68 -26 11 10 -54 94 -82 107 -14 7 -46 14 -72 17 -68 8 -91 13 -91 23 0 4
29 41 65 82 42 47 75 76 92 79 14 3 28 11 31 18 3 10 -4 12 -32 7 -45 -9 -47
5 -4 39 29 23 31 27 18 40 -14 14 -19 14 -47 -4 -18 -11 -48 -43 -68 -73 -20
-30 -50 -64 -66 -76 -51 -38 -68 -22 -114 113 -34 100 -38 118 -25 126 26 18
59 22 104 16 33 -5 46 -12 51 -29 6 -19 8 -17 19 18 10 31 20 42 44 51 50 16
60 31 29 43 -39 15 -33 31 10 31 48 0 34 13 -41 36 -70 21 -122 63 -131 104
-4 17 -16 37 -28 45 -20 14 -24 13 -57 -22 l-35 -38 -3 33 c-3 26 4 41 32 73
36 39 44 63 26 74 -5 3 -20 -1 -33 -10 -13 -8 -32 -13 -41 -9 -11 4 -22 -1
-32 -15 -22 -31 -31 -26 -26 14 5 41 -3 43 -35 13 l-23 -22 -30 29 c-27 26
-80 44 -80 27 0 -4 14 -24 30 -44 35 -42 28 -51 -29 -42 -23 4 -41 4 -41 2 0
-3 18 -17 40 -32 23 -15 40 -34 40 -45 0 -16 -8 -19 -57 -18 -79 1 -143 -12
-143 -29 0 -21 -18 -17 -30 6 -8 15 -21 20 -50 20 -29 0 -42 5 -50 19 -16 31
-12 73 11 97 12 12 19 28 17 35 -3 8 -12 0 -23 -19 -11 -18 -23 -32 -27 -32
-5 0 -24 16 -44 35 -19 19 -39 35 -44 35 -6 0 -10 9 -10 20 0 21 -15 27 -25
10 -14 -23 -46 -10 -61 25 -15 36 -19 41 -28 27z m168 -688 c9 -3 16 -13 16
-21 0 -10 7 -12 20 -9 68 20 67 20 45 2 -11 -8 -26 -16 -32 -16 -7 0 -13 -7
-13 -15 0 -8 -4 -15 -10 -15 -5 0 -10 -7 -10 -15 0 -17 2 -18 24 -9 9 3 16 12
16 20 0 8 6 14 14 14 8 0 16 7 20 15 3 9 12 12 23 9 14 -5 15 -4 4 4 -11 8 -8
13 13 27 26 17 27 17 47 -4 11 -11 27 -21 35 -21 10 0 14 -6 10 -15 -3 -9 0
-15 10 -15 12 0 15 -6 11 -21 -3 -12 0 -22 9 -26 30 -11 12 -23 -36 -23 -27 0
-50 -3 -50 -6 0 -24 87 -59 125 -50 13 3 26 2 29 -3 3 -5 -15 -12 -41 -16 -25
-4 -57 -14 -70 -22 -26 -17 -96 -11 -122 10 -8 7 -46 12 -85 13 -119 1 -109
-6 -104 80 3 72 5 77 38 105 38 31 41 32 64 23z m306 -54 c0 -14 -24 -18 -43
-8 -10 5 -15 13 -13 17 7 10 56 2 56 -9z m-606 -88 c-4 -12 -10 -22 -15 -22
-11 0 -12 44 -2 54 12 11 23 -9 17 -32z m-51 -14 c7 -50 2 -59 -18 -32 -14 19
-15 18 -21 -3 -5 -17 -14 -23 -35 -23 -39 0 -38 27 2 68 44 45 65 42 72 -10z
m500 -183 c-21 -16 -28 -12 -20 9 4 9 13 13 22 10 14 -6 13 -8 -2 -19z m567
-5 c0 -5 -5 -10 -11 -10 -5 0 -7 5 -4 10 3 6 8 10 11 10 2 0 4 -4 4 -10z
m-567 -95 c-4 -40 -2 -45 16 -45 12 0 21 -4 21 -9 0 -16 -25 -28 -55 -26 -16
1 -44 -7 -63 -18 -23 -14 -36 -17 -44 -9 -7 7 -1 15 21 26 19 10 43 38 62 71
17 30 34 55 38 55 4 0 6 -20 4 -45z m-323 -14 c0 -11 -29 -35 -35 -29 -10 9 7
38 21 38 8 0 14 -4 14 -9z m-118 -23 c-7 -7 -12 -8 -12 -2 0 14 12 26 19 19 2
-3 -1 -11 -7 -17z m175 -3 c21 -14 43 -29 49 -34 6 -5 22 -11 35 -13 18 -2 24
-9 24 -28 0 -23 5 -26 62 -35 34 -5 65 -13 68 -17 4 -4 -3 -17 -15 -30 l-21
-23 20 -3 c28 -5 26 -18 -3 -26 -13 -3 -32 -9 -42 -13 -12 -4 -15 -3 -10 5 4
7 1 12 -10 12 -24 0 -64 -47 -64 -76 0 -13 -4 -24 -9 -24 -13 0 -23 38 -26 95
-3 71 -19 104 -47 102 -13 0 -26 -6 -30 -11 -11 -16 -28 41 -28 95 0 27 2 49
5 49 2 0 21 -11 42 -25z m183 -15 c0 -5 -7 -10 -16 -10 -8 0 -12 5 -9 10 3 6
10 10 16 10 5 0 9 -4 9 -10z m339 -26 c7 -6 -44 -43 -59 -44 -21 0 -40 20 -40
41 0 14 8 16 48 11 26 -2 49 -6 51 -8z m-612 -46 c-3 -8 -6 -5 -6 6 -1 11 2
17 5 13 3 -3 4 -12 1 -19z m393 -48 c0 -5 -7 -10 -16 -10 -8 0 -12 5 -9 10 3
6 10 10 16 10 5 0 9 -4 9 -10z m-360 -15 c0 -8 -4 -15 -10 -15 -5 0 -10 7 -10
15 0 8 5 15 10 15 6 0 10 -7 10 -15z m318 -123 c9 -6 0 -13 -26 -21 -41 -14
-82 -12 -85 4 -4 17 88 31 111 17z m456 -202 c-4 -13 -6 -13 -14 0 -12 18 -13
61 -3 87 5 13 9 6 15 -27 4 -25 6 -52 2 -60z m62 75 c4 -14 3 -29 0 -33 -9 -8
-26 18 -26 41 0 26 19 20 26 -8z m-511 -6 c-4 -5 -10 -7 -14 -5 -4 3 -20 -4
-36 -14 -21 -14 -33 -16 -42 -8 -10 8 -13 7 -13 -2 0 -8 -3 -11 -6 -8 -3 3 0
14 6 25 8 13 25 19 61 20 30 1 47 -2 44 -8z m440 -159 c-5 -15 -10 -19 -17
-12 -7 7 -6 15 3 25 18 19 23 14 14 -13z m-28 -80 c-10 -14 -17 -18 -22 -10
-4 6 1 17 11 25 25 18 30 11 11 -15z m-107 6 c0 -2 -7 -7 -16 -10 -8 -3 -12
-2 -9 4 6 10 25 14 25 6z m89 -51 c3 -17 2 -17 -13 -3 -19 20 -21 31 -3 26 6
-3 14 -13 16 -23z m-59 6 c0 -6 -4 -13 -10 -16 -5 -3 -10 1 -10 9 0 9 5 16 10
16 6 0 10 -4 10 -9z m-95 -10 c-3 -5 -1 -12 5 -16 16 -10 12 -25 -5 -19 -14 6
-20 -7 -15 -31 1 -5 -5 -14 -13 -20 -16 -12 -12 -65 5 -65 14 0 39 -67 31 -86
-4 -12 -2 -15 8 -12 15 5 38 -19 39 -41 0 -15 28 -51 40 -51 3 0 13 23 20 50
14 52 30 67 30 28 0 -24 -28 -106 -43 -125 -5 -7 -14 -13 -19 -13 -5 0 -38 60
-73 133 -47 96 -73 138 -95 152 -16 11 -29 23 -27 28 2 6 107 95 115 96 2 1 1
-3 -3 -8z m117 -23 c-7 -7 -12 -8 -12 -2 0 14 12 26 19 19 2 -3 -1 -11 -7 -17z
m25 -32 c-6 -17 -57 -20 -57 -3 0 9 11 14 30 14 18 0 29 -5 27 -11z m40 -28
c-3 -7 -5 -2 -5 12 0 14 2 19 5 13 2 -7 2 -19 0 -25z m-61 -67 c0 -33 -5 -63
-10 -68 -5 -4 -6 -3 -3 3 4 7 0 17 -9 24 -11 10 -12 15 -3 20 8 6 8 13 0 29
-9 15 -9 27 -1 41 18 33 28 14 26 -49z m-70 -16 c1 -62 0 -66 -12 -44 -7 13
-13 32 -14 41 0 9 -6 19 -12 21 -10 4 -9 8 2 16 13 9 13 11 -2 11 -10 0 -18 5
-18 11 0 5 4 8 9 4 5 -3 13 -1 16 5 17 27 29 -1 31 -65z m-796 -45 c0 -5 -8
-10 -17 -10 -15 0 -16 2 -3 10 19 12 20 12 20 0z m900 0 c0 -5 -4 -10 -10 -10
-5 0 -10 5 -10 10 0 6 5 10 10 10 6 0 10 -4 10 -10z m-60 -54 c0 -11 -19 -15
-25 -6 -3 5 1 10 9 10 9 0 16 -2 16 -4z m-783 -48 c-3 -8 -6 -5 -6 6 -1 11 2
17 5 13 3 -3 4 -12 1 -19z m63 18 c0 -2 -7 -9 -15 -16 -13 -11 -14 -10 -9 4 5
14 24 23 24 12z m404 -103 c-4 -38 -11 -75 -16 -83 -10 -16 -2 107 8 135 12
30 14 14 8 -52z m-454 47 c0 -5 -5 -10 -11 -10 -5 0 -7 5 -4 10 3 6 8 10 11
10 2 0 4 -4 4 -10z m710 -41 c0 -4 -4 -11 -10 -14 -5 -3 -10 -15 -10 -26 0
-10 -4 -19 -10 -19 -12 0 -13 24 -3 70 6 31 7 32 20 15 7 -11 13 -22 13 -26z
m-323 -140 c-3 -26 -14 -65 -25 -86 -10 -21 -20 -63 -22 -93 -1 -30 -3 -77 -4
-105 -2 -27 -3 -71 -4 -97 -1 -27 -7 -48 -13 -48 -14 0 -3 308 13 327 8 10 8
20 -1 39 -6 14 -7 23 -2 20 9 -6 21 25 21 57 0 22 22 47 34 40 5 -3 6 -27 3
-54z m330 46 c0 -10 -5 -11 -19 -4 -10 5 -18 11 -18 12 0 2 8 3 18 4 10 1 19
-5 19 -12z m-731 -21 c-4 -9 -9 -15 -11 -12 -3 3 -3 13 1 22 4 9 9 15 11 12 3
-3 3 -13 -1 -22z m444 -24 c0 -11 -4 -20 -9 -20 -5 0 -7 9 -4 20 3 11 7 20 9
20 2 0 4 -9 4 -20z m240 -4 c0 -3 -4 -8 -10 -11 -5 -3 -10 -1 -10 4 0 6 5 11
10 11 6 0 10 -2 10 -4z m-756 -21 c-4 -8 -10 -15 -15 -15 -4 0 -6 7 -3 15 4 8
10 15 15 15 4 0 6 -7 3 -15z m812 -4 c-3 -5 0 -27 8 -48 9 -25 11 -45 5 -54
-6 -10 -9 -10 -9 -1 0 21 -3 27 -19 40 -10 9 -12 15 -5 18 6 3 9 16 6 29 -2
15 0 25 7 25 7 0 10 -4 7 -9z m-60 -27 c-3 -9 -6 -27 -6 -40 0 -13 -4 -24 -10
-24 -11 0 -14 63 -3 73 12 13 25 7 19 -9z m-691 -24 c3 -5 1 -10 -4 -10 -6 0
-11 5 -11 10 0 6 2 10 4 10 3 0 8 -4 11 -10z m655 1 c0 -5 -6 -14 -14 -20 -12
-10 -13 -8 -9 8 5 21 23 30 23 12z m-212 -36 c-6 -14 -13 -23 -15 -21 -5 5 15
46 22 46 3 0 -1 -11 -7 -25z m200 -89 c-1 -17 -6 -37 -11 -43 -5 -7 -7 -20 -3
-28 3 -9 2 -14 -3 -11 -7 5 -8 96 -2 146 4 27 21 -31 19 -64z m106 61 c10 -10
11 -15 0 -24 -9 -9 -14 -9 -18 3 -13 34 -4 44 18 21z m-157 -34 c-3 -10 -5 -4
-5 12 0 17 2 24 5 18 2 -7 2 -21 0 -30z m98 -23 c1 -39 -3 -60 -11 -60 -7 0
-11 21 -10 60 0 79 21 79 21 0z m58 -44 c-9 -13 -10 -17 -25 -118 -6 -43 -16
-78 -21 -78 -6 0 -7 20 -3 53 4 28 7 78 6 110 -1 70 6 84 31 61 10 -9 15 -22
12 -28z m-963 14 c0 -5 -4 -10 -10 -10 -5 0 -10 5 -10 10 0 6 5 10 10 10 6 0
10 -4 10 -10z m860 -128 c0 -21 -2 -24 -10 -12 -13 20 -13 53 0 45 6 -3 10
-18 10 -33z m-867 -2 c-3 -11 -7 -20 -9 -20 -2 0 -4 9 -4 20 0 11 4 20 9 20 5
0 7 -9 4 -20z m-358 0 c3 -5 1 -10 -4 -10 -6 0 -11 5 -11 10 0 6 2 10 4 10 3
0 8 -4 11 -10z m410 0 c3 -5 1 -10 -4 -10 -6 0 -11 5 -11 10 0 6 2 10 4 10 3
0 8 -4 11 -10z m855 -5 c0 -8 -4 -15 -10 -15 -5 0 -7 7 -4 15 4 8 8 15 10 15
2 0 4 -7 4 -15z m-1200 -35 c0 -5 -5 -10 -11 -10 -5 0 -7 5 -4 10 3 6 8 10 11
10 2 0 4 -4 4 -10z m290 -12 c0 -16 -3 -19 -11 -11 -6 6 -8 16 -5 22 11 17 16
13 16 -11z m897 -60 c-3 -8 -6 -5 -6 6 -1 11 2 17 5 13 3 -3 4 -12 1 -19z"/>
<path d="M1357 2353 c-12 -11 -8 -23 8 -23 8 0 15 7 15 15 0 16 -12 20 -23 8z"/>
<path d="M1450 2321 c0 -6 4 -13 10 -16 6 -3 7 1 4 9 -7 18 -14 21 -14 7z"/>
<path d="M1392 2311 c-11 -6 -10 -10 0 -19 11 -8 17 -6 26 9 10 15 10 19 0 19
-7 0 -19 -4 -26 -9z"/>
<path d="M1445 1210 c3 -5 8 -10 11 -10 2 0 4 5 4 10 0 6 -5 10 -11 10 -5 0
-7 -4 -4 -10z"/>
<path d="M1413 1203 c-20 -7 -15 -23 7 -23 11 0 20 4 20 9 0 13 -12 19 -27 14z"/>
<path d="M1386 1055 c4 -8 -1 -31 -11 -51 -9 -19 -15 -40 -12 -47 2 -7 14 10
26 37 21 49 22 76 2 76 -6 0 -8 -7 -5 -15z"/>
<path d="M1335 900 c-3 -5 -1 -10 4 -10 6 0 11 5 11 10 0 6 -2 10 -4 10 -3 0
-8 -4 -11 -10z"/>
</g>
</svg>
