<?xml version="1.0" standalone="no"?>
<!DOCTYPE svg PUBLIC "-//W3C//DTD SVG 20010904//EN"
 "http://www.w3.org/TR/2001/REC-SVG-20010904/DTD/svg10.dtd">
<svg version="1.0" xmlns="http://www.w3.org/2000/svg"
 width="320.000000pt" height="320.000000pt" viewBox="0 0 320.000000 320.000000"
 preserveAspectRatio="xMidYMid meet">

<g transform="translate(0.000000,320.000000) scale(0.100000,-0.100000)"
fill="#000000" stroke="none">
<path d="M1157 3153 c-15 -27 -16 -85 -1 -122 25 -63 -1 -84 -68 -56 -13 5
-18 3 -18 -9 0 -12 -10 -16 -36 -16 -29 0 -34 -3 -26 -13 9 -10 -2 -27 -44
-71 -50 -52 -54 -59 -38 -70 21 -16 12 -49 -21 -70 -14 -9 -25 -21 -25 -27 0
-8 5 -8 15 1 23 19 38 1 32 -41 -4 -34 -2 -39 15 -39 10 0 28 -5 38 -10 17 -9
23 -4 45 30 21 34 30 40 48 34 42 -13 54 -55 38 -128 -23 -103 -67 -146 -163
-157 -72 -9 -98 -29 -98 -78 0 -43 -9 -59 -41 -75 -13 -6 -26 -22 -27 -36 -2
-14 -9 -32 -15 -40 -6 -8 2 -2 17 13 32 32 56 24 37 -11 -20 -37 -12 -46 17
-19 27 26 82 38 82 17 0 -5 -13 -19 -30 -31 -29 -22 -56 -79 -62 -129 -2 -20
2 -26 23 -28 23 -3 35 7 75 60 74 98 82 106 109 101 21 -5 23 -9 18 -42 -7
-46 -53 -119 -120 -193 -52 -57 -59 -71 -47 -102 10 -26 21 -19 55 32 32 48
56 72 71 72 12 0 10 -118 -2 -125 -6 -4 -21 -27 -34 -53 -13 -26 -38 -60 -55
-76 -36 -34 -39 -46 -11 -46 13 0 27 14 41 43 12 23 37 61 56 85 29 36 38 41
61 36 42 -10 46 -20 28 -57 -22 -48 -20 -83 6 -101 34 -24 44 -20 40 17 -2 22
2 38 13 47 14 11 17 10 22 -8 3 -13 19 -26 38 -33 25 -9 35 -20 39 -42 11 -52
7 -95 -9 -101 -23 -8 -18 -55 10 -92 14 -18 25 -37 25 -42 0 -6 9 -8 20 -5 18
5 19 2 12 -28 -9 -42 -9 -111 0 -207 12 -129 21 -92 15 60 -3 81 -2 150 2 152
3 3 27 -14 51 -36 25 -22 55 -47 68 -57 19 -14 22 -21 13 -41 -5 -14 -23 -40
-40 -57 -16 -18 -26 -33 -21 -33 4 0 28 22 52 50 59 69 79 66 37 -5 -12 -19
-40 -91 -64 -160 -23 -69 -50 -136 -59 -149 -9 -14 -16 -32 -16 -41 0 -18 -14
-20 -28 -2 -10 11 -38 82 -47 117 -20 81 -24 113 -16 128 12 23 2 89 -11 71
-6 -9 -7 -5 -3 12 4 14 -3 58 -14 99 -12 41 -21 99 -21 130 -1 39 -3 50 -10
39 -5 -9 -11 -78 -13 -154 -3 -102 -8 -141 -18 -149 -8 -6 -14 -20 -14 -31 0
-14 -8 -21 -27 -23 -17 -2 -28 2 -28 8 0 8 9 10 25 6 28 -7 30 -4 14 25 -5 11
-14 17 -20 14 -5 -4 -9 3 -9 14 0 11 5 23 10 26 6 3 10 22 10 41 0 38 -20 46
-42 16 -7 -10 -21 -21 -31 -25 -13 -5 -16 -13 -12 -27 4 -11 2 -20 -4 -20 -6
0 -11 5 -11 11 0 6 -7 9 -15 5 -13 -5 -14 -2 -4 17 6 12 17 29 25 37 7 8 14
20 15 25 1 6 13 27 27 48 14 20 23 39 21 42 -5 4 -261 -79 -281 -91 -7 -4 -21
-9 -33 -10 -43 -5 -187 -34 -197 -40 -6 -4 -23 -7 -39 -6 -16 0 -38 -9 -55
-24 -25 -24 -26 -29 -21 -92 3 -37 2 -56 -2 -42 -8 28 -15 20 -26 -28 -4 -21
-3 -32 5 -32 6 0 4 -7 -5 -17 -13 -13 -16 -28 -13 -65 4 -36 -1 -67 -19 -115
-21 -60 -24 -80 -21 -192 3 -101 1 -133 -13 -161 -9 -19 -19 -47 -23 -62 -6
-28 -1 -32 42 -31 16 1 12 -29 -4 -34 -7 -2 -18 3 -27 11 -19 19 -27 11 -27
-28 0 -29 -22 -146 -35 -187 -6 -18 32 -19 1330 -19 l1337 0 -7 107 c-4 60
-11 140 -16 178 -5 39 -13 164 -19 278 -8 176 -13 216 -31 255 -11 26 -32 81
-46 122 -27 82 -67 162 -92 184 -17 15 -280 88 -508 142 -155 36 -203 56 -248
103 -26 28 -28 34 -17 52 11 18 11 27 -3 56 -10 20 -19 54 -22 77 -4 39 -3 40
11 22 9 -11 16 -30 16 -43 0 -13 6 -23 14 -23 11 0 15 14 15 53 0 28 5 84 10
122 6 39 7 119 4 178 l-6 108 33 34 c32 33 34 33 61 19 43 -22 46 -18 34 44
-13 64 -4 76 37 48 32 -23 41 -20 23 7 -25 38 -7 38 67 1 39 -19 72 -33 75
-30 3 3 -6 19 -21 36 -14 17 -26 35 -26 39 0 15 -75 41 -135 49 -75 9 -77 23
-14 89 25 26 51 58 57 70 8 14 23 23 44 25 17 2 33 9 36 16 3 10 -4 12 -32 7
-45 -9 -47 5 -4 38 27 22 30 28 19 41 -21 25 -62 -3 -118 -81 -55 -75 -94
-103 -120 -87 -16 10 -91 202 -92 235 -2 40 138 52 165 14 11 -15 13 -13 19
18 6 31 12 37 43 44 36 9 59 43 29 43 -8 0 -20 7 -27 15 -11 13 -7 15 31 15
53 0 42 11 -32 33 -79 24 -121 55 -132 97 -17 68 -52 80 -87 30 -27 -38 -40
-38 -40 1 0 21 11 44 35 72 43 50 46 72 8 63 -16 -4 -38 -8 -50 -9 -12 -1 -34
-13 -48 -27 l-27 -25 7 32 c10 47 -2 59 -31 32 l-24 -23 -30 29 c-27 26 -80
43 -80 26 0 -4 13 -22 30 -41 16 -18 27 -37 24 -42 -3 -5 -27 -6 -52 -3 -40 5
-44 4 -28 -7 56 -38 74 -59 69 -79 -4 -14 -10 -18 -22 -13 -20 10 -60 9 -128
-1 -40 -6 -53 -12 -57 -29 -6 -21 -6 -21 -18 -1 -6 11 -12 21 -13 23 -1 1 -22
5 -46 8 -24 3 -46 8 -48 10 -2 2 -7 21 -11 43 -6 35 -4 43 16 62 13 13 24 30
24 38 0 9 -9 3 -22 -16 -13 -18 -27 -33 -31 -33 -4 0 -24 16 -44 35 -20 19
-40 35 -45 35 -4 0 -8 9 -8 20 0 17 -3 19 -19 10 -34 -18 -52 -11 -67 25 -15
36 -20 41 -27 28z m167 -689 c9 -3 16 -13 16 -21 0 -10 7 -12 20 -9 68 20 67
20 45 2 -11 -8 -26 -16 -32 -16 -7 0 -13 -7 -13 -15 0 -8 -4 -15 -10 -15 -5 0
-10 -7 -10 -15 0 -17 2 -18 24 -9 9 3 16 12 16 20 0 8 6 14 14 14 8 0 16 7 20
15 3 9 12 12 23 9 14 -5 15 -4 4 4 -11 8 -8 13 13 27 26 17 27 17 47 -4 11
-11 27 -21 35 -21 10 0 14 -6 10 -15 -3 -9 0 -15 10 -15 12 0 15 -6 11 -21 -3
-12 0 -22 9 -26 30 -11 12 -23 -36 -23 -27 0 -50 -3 -50 -6 0 -24 87 -59 125
-50 13 3 26 2 29 -3 3 -5 -15 -12 -41 -16 -25 -4 -57 -14 -70 -22 -26 -17 -96
-11 -122 10 -8 7 -46 12 -85 13 -119 1 -109 -6 -104 80 3 72 5 77 38 105 38
31 41 32 64 23z m306 -54 c0 -14 -24 -18 -43 -8 -10 5 -15 13 -13 17 7 10 56
2 56 -9z m-605 -60 c8 -13 -3 -50 -15 -50 -12 0 -23 37 -15 50 3 5 10 10 15
10 5 0 12 -5 15 -10z m-51 -41 c7 -45 1 -62 -15 -39 -8 13 -11 13 -23 -2 -7
-10 -25 -18 -40 -18 -36 0 -35 33 3 71 43 43 67 39 75 -12z m499 -184 c-21
-16 -28 -12 -20 9 4 9 13 13 22 10 14 -6 13 -8 -2 -19z m571 -10 c-4 -8 -10
-12 -15 -9 -14 8 -10 24 6 24 9 0 12 -6 9 -15z m-571 -90 c-4 -40 -2 -45 16
-45 12 0 21 -4 21 -9 0 -16 -25 -28 -55 -26 -16 1 -44 -7 -63 -18 -23 -14 -36
-17 -44 -9 -7 7 -1 15 21 26 19 10 43 38 62 71 17 30 34 55 38 55 4 0 6 -20 4
-45z m-323 -14 c0 -11 -29 -35 -35 -29 -10 9 7 38 21 38 8 0 14 -4 14 -9z
m-110 -16 c-7 -9 -15 -13 -17 -11 -7 7 7 26 19 26 6 0 6 -6 -2 -15z m167 -10
c21 -14 43 -29 49 -34 6 -5 22 -11 35 -13 18 -2 24 -9 24 -28 0 -23 5 -26 62
-35 34 -5 65 -13 68 -17 4 -4 -3 -17 -15 -30 l-21 -23 20 -3 c28 -5 26 -18 -3
-26 -13 -3 -32 -9 -42 -13 -12 -4 -15 -3 -10 5 4 7 1 12 -10 12 -24 0 -64 -47
-64 -76 0 -13 -4 -24 -9 -24 -13 0 -23 38 -26 95 -3 71 -19 104 -47 102 -13 0
-26 -6 -30 -11 -11 -16 -28 41 -28 95 0 27 2 49 5 49 2 0 21 -11 42 -25z m183
-15 c0 -5 -7 -10 -16 -10 -8 0 -12 5 -9 10 3 6 10 10 16 10 5 0 9 -4 9 -10z
m339 -26 c7 -6 -44 -43 -59 -44 -21 0 -40 20 -40 41 0 14 8 16 48 11 26 -2 49
-6 51 -8z m-612 -46 c-3 -8 -6 -5 -6 6 -1 11 2 17 5 13 3 -3 4 -12 1 -19z
m393 -48 c0 -5 -7 -10 -16 -10 -8 0 -12 5 -9 10 3 6 10 10 16 10 5 0 9 -4 9
-10z m-360 -15 c0 -8 -4 -15 -10 -15 -5 0 -10 7 -10 15 0 8 5 15 10 15 6 0 10
-7 10 -15z m318 -123 c9 -6 0 -13 -26 -21 -41 -14 -82 -12 -85 4 -4 17 88 31
111 17z m449 -74 c-3 -7 -5 -2 -5 12 0 14 2 19 5 13 2 -7 2 -19 0 -25z m8 -87
c0 -44 -16 -56 -26 -19 -6 26 10 85 20 70 3 -6 6 -29 6 -51z m-450 28 c-4 -5
-10 -7 -14 -5 -4 3 -20 -4 -36 -14 -21 -14 -33 -16 -42 -8 -10 8 -13 7 -13 -2
0 -8 -3 -11 -6 -8 -3 3 0 14 6 25 8 13 25 19 61 20 30 1 47 -2 44 -8z m440
-159 c-5 -15 -10 -19 -17 -12 -7 7 -6 15 3 25 18 19 23 14 14 -13z m-28 -80
c-10 -14 -17 -18 -22 -10 -4 6 1 17 11 25 25 18 30 11 11 -15z m-107 6 c0 -2
-7 -7 -16 -10 -8 -3 -12 -2 -9 4 6 10 25 14 25 6z m89 -51 c3 -17 2 -17 -13
-3 -19 20 -21 31 -3 26 6 -3 14 -13 16 -23z m-59 6 c0 -6 -4 -13 -10 -16 -5
-3 -10 1 -10 9 0 9 5 16 10 16 6 0 10 -4 10 -9z m-95 -10 c-3 -5 -1 -12 5 -16
16 -10 12 -25 -5 -19 -14 6 -20 -7 -15 -31 1 -5 -5 -14 -13 -20 -16 -12 -12
-65 5 -65 14 0 39 -67 31 -86 -4 -12 -2 -15 8 -12 15 5 38 -19 39 -41 0 -15
28 -51 40 -51 3 0 13 23 20 50 14 52 30 67 30 28 0 -24 -28 -106 -43 -125 -5
-7 -14 -13 -19 -13 -5 0 -38 60 -73 133 -47 96 -73 138 -95 152 -16 11 -29 23
-27 28 2 6 107 95 115 96 2 1 1 -3 -3 -8z m117 -23 c-7 -7 -12 -8 -12 -2 0 14
12 26 19 19 2 -3 -1 -11 -7 -17z m25 -32 c-6 -17 -57 -20 -57 -3 0 9 11 14 30
14 18 0 29 -5 27 -11z m40 -28 c-3 -7 -5 -2 -5 12 0 14 2 19 5 13 2 -7 2 -19
0 -25z m-61 -67 c0 -33 -5 -63 -10 -68 -5 -4 -6 -3 -3 3 4 7 0 17 -9 24 -11
10 -12 15 -3 20 8 6 8 13 0 29 -9 15 -9 27 -1 41 18 33 28 14 26 -49z m-70
-16 c1 -62 0 -66 -12 -44 -7 13 -13 32 -14 41 0 9 -6 19 -12 21 -10 4 -9 8 2
16 13 9 13 11 -2 11 -10 0 -18 5 -18 11 0 5 4 8 9 4 5 -3 13 -1 16 5 17 27 29
-1 31 -65z m-796 -45 c0 -5 -8 -10 -17 -10 -15 0 -16 2 -3 10 19 12 20 12 20
0z m900 0 c0 -5 -4 -10 -10 -10 -5 0 -10 5 -10 10 0 6 5 10 10 10 6 0 10 -4
10 -10z m-60 -54 c0 -11 -19 -15 -25 -6 -3 5 1 10 9 10 9 0 16 -2 16 -4z
m-783 -48 c-3 -8 -6 -5 -6 6 -1 11 2 17 5 13 3 -3 4 -12 1 -19z m63 18 c0 -2
-7 -9 -15 -16 -13 -11 -14 -10 -9 4 5 14 24 23 24 12z m404 -103 c-4 -38 -11
-75 -16 -83 -10 -16 -2 107 8 135 12 30 14 14 8 -52z m-454 47 c0 -5 -5 -10
-11 -10 -5 0 -7 5 -4 10 3 6 8 10 11 10 2 0 4 -4 4 -10z m710 -41 c0 -4 -4
-11 -10 -14 -5 -3 -10 -15 -10 -26 0 -10 -4 -19 -10 -19 -12 0 -13 24 -3 70 6
31 7 32 20 15 7 -11 13 -22 13 -26z m-323 -140 c-3 -26 -14 -65 -25 -86 -10
-21 -20 -63 -22 -93 -1 -30 -3 -77 -4 -105 -2 -27 -3 -71 -4 -97 -1 -27 -7
-48 -13 -48 -14 0 -3 308 13 327 8 10 8 20 -1 39 -6 14 -7 23 -2 20 9 -6 21
25 21 57 0 22 22 47 34 40 5 -3 6 -27 3 -54z m330 46 c0 -10 -5 -11 -19 -4
-10 5 -18 11 -18 12 0 2 8 3 18 4 10 1 19 -5 19 -12z m-731 -21 c-4 -9 -9 -15
-11 -12 -3 3 -3 13 1 22 4 9 9 15 11 12 3 -3 3 -13 -1 -22z m444 -24 c0 -11
-4 -20 -9 -20 -5 0 -7 9 -4 20 3 11 7 20 9 20 2 0 4 -9 4 -20z m240 -4 c0 -3
-4 -8 -10 -11 -5 -3 -10 -1 -10 4 0 6 5 11 10 11 6 0 10 -2 10 -4z m-756 -21
c-4 -8 -10 -15 -15 -15 -4 0 -6 7 -3 15 4 8 10 15 15 15 4 0 6 -7 3 -15z m812
-4 c-3 -5 0 -27 8 -48 9 -25 11 -45 5 -54 -6 -10 -9 -10 -9 -1 0 21 -3 27 -19
40 -10 9 -12 15 -5 18 6 3 9 16 6 29 -2 15 0 25 7 25 7 0 10 -4 7 -9z m-60
-27 c-3 -9 -6 -27 -6 -40 0 -13 -4 -24 -10 -24 -11 0 -14 63 -3 73 12 13 25 7
19 -9z m-691 -24 c3 -5 1 -10 -4 -10 -6 0 -11 5 -11 10 0 6 2 10 4 10 3 0 8
-4 11 -10z m655 1 c0 -5 -6 -14 -14 -20 -12 -10 -13 -8 -9 8 5 21 23 30 23 12z
m-212 -36 c-6 -14 -13 -23 -15 -21 -5 5 15 46 22 46 3 0 -1 -11 -7 -25z m200
-89 c-1 -17 -6 -37 -11 -43 -5 -7 -7 -20 -3 -28 3 -9 2 -14 -3 -11 -7 5 -8 96
-2 146 4 27 21 -31 19 -64z m106 61 c10 -10 11 -15 0 -24 -9 -9 -14 -9 -18 3
-13 34 -4 44 18 21z m-157 -34 c-3 -10 -5 -4 -5 12 0 17 2 24 5 18 2 -7 2 -21
0 -30z m98 -23 c1 -39 -3 -60 -11 -60 -7 0 -11 21 -10 60 0 79 21 79 21 0z
m58 -44 c-9 -13 -10 -17 -25 -118 -6 -43 -16 -78 -21 -78 -6 0 -7 20 -3 53 4
28 7 78 6 110 -1 70 6 84 31 61 10 -9 15 -22 12 -28z m-963 14 c0 -5 -4 -10
-10 -10 -5 0 -10 5 -10 10 0 6 5 10 10 10 6 0 10 -4 10 -10z m860 -128 c0 -21
-2 -24 -10 -12 -13 20 -13 53 0 45 6 -3 10 -18 10 -33z m-867 -2 c-3 -11 -7
-20 -9 -20 -2 0 -4 9 -4 20 0 11 4 20 9 20 5 0 7 -9 4 -20z m-358 0 c3 -5 1
-10 -4 -10 -6 0 -11 5 -11 10 0 6 2 10 4 10 3 0 8 -4 11 -10z m410 0 c3 -5 1
-10 -4 -10 -6 0 -11 5 -11 10 0 6 2 10 4 10 3 0 8 -4 11 -10z m855 -5 c0 -8
-4 -15 -10 -15 -5 0 -7 7 -4 15 4 8 8 15 10 15 2 0 4 -7 4 -15z m-1200 -35 c0
-5 -5 -10 -11 -10 -5 0 -7 5 -4 10 3 6 8 10 11 10 2 0 4 -4 4 -10z m290 -12
c0 -16 -3 -19 -11 -11 -6 6 -8 16 -5 22 11 17 16 13 16 -11z m897 -60 c-3 -8
-6 -5 -6 6 -1 11 2 17 5 13 3 -3 4 -12 1 -19z"/>
<path d="M1357 2353 c-12 -11 -8 -23 8 -23 8 0 15 7 15 15 0 16 -12 20 -23 8z"/>
<path d="M1450 2321 c0 -6 4 -13 10 -16 6 -3 7 1 4 9 -7 18 -14 21 -14 7z"/>
<path d="M1392 2311 c-11 -6 -10 -10 0 -19 11 -8 17 -6 26 9 10 15 10 19 0 19
-7 0 -19 -4 -26 -9z"/>
<path d="M1445 1210 c3 -5 8 -10 11 -10 2 0 4 5 4 10 0 6 -5 10 -11 10 -5 0
-7 -4 -4 -10z"/>
<path d="M1413 1203 c-20 -7 -15 -23 7 -23 11 0 20 4 20 9 0 13 -12 19 -27 14z"/>
<path d="M1386 1055 c4 -8 -1 -31 -11 -51 -9 -19 -15 -40 -12 -47 2 -7 14 10
26 37 21 49 22 76 2 76 -6 0 -8 -7 -5 -15z"/>
<path d="M1335 900 c-3 -5 -1 -10 4 -10 6 0 11 5 11 10 0 6 -2 10 -4 10 -3 0
-8 -4 -11 -10z"/>
</g>
</svg>
